<mxfile host="app.diagrams.net" modified="2024-03-18T10:26:56.288Z" agent="Mozilla/5.0 (Windows NT 10.0; Win64; x64) AppleWebKit/537.36 (KHTML, like Gecko) Chrome/122.0.0.0 Safari/537.36" version="24.0.7" etag="fypWck4zM8oAETqXcrcp" type="github">
  <diagram name="Seite-1" id="36miQz309omqqJ6BH8QW">
    <mxGraphModel>
      <root>
        <mxCell id="0" />
        <mxCell id="1" parent="0" />
      </root>
    </mxGraphModel>
  </diagram>
</mxfile>
